<?xml version="1.0" encoding="utf-8" standalone="no"?>
<!DOCTYPE svg PUBLIC "-//W3C//DTD SVG 1.1//EN"
  "http://www.w3.org/Graphics/SVG/1.1/DTD/svg11.dtd">
<svg xmlns:xlink="http://www.w3.org/1999/xlink" width="374.4pt" height="183.6pt" viewBox="0 0 374.4 183.6" xmlns="http://www.w3.org/2000/svg" version="1.1">
 <metadata>
  <rdf:RDF xmlns:dc="http://purl.org/dc/elements/1.1/" xmlns:cc="http://creativecommons.org/ns#" xmlns:rdf="http://www.w3.org/1999/02/22-rdf-syntax-ns#">
   <cc:Work>
    <dc:type rdf:resource="http://purl.org/dc/dcmitype/StillImage"/>
    <dc:format>image/svg+xml</dc:format>
    <dc:creator>
     <cc:Agent>
      <dc:title>CheckRC-Q</dc:title>
     </cc:Agent>
    </dc:creator>
   </cc:Work>
  </rdf:RDF>
 </metadata>
 <defs>
  <style type="text/css">*{stroke-linejoin: round; stroke-linecap: butt}</style>
 </defs>
 <g id="figure_1">
  <g id="patch_1">
   <path d="M 0 183.6 
L 374.4 183.6 
L 374.4 0 
L 0 0 
z
" style="fill: #ffffff"/>
  </g>
  <g id="axes_1">
   <g id="patch_2">
    <path d="M 25.827326 157.276041 
L 371.39976 157.276041 
L 371.39976 15.230959 
L 25.827326 15.230959 
z
" style="fill: #ffffff"/>
   </g>
   <g id="patch_3">
    <path d="M 41.535164 157.276041 
L 70.560517 157.276041 
L 70.560517 46.591561 
L 41.535164 46.591561 
z
" clip-path="url(#pb9566177a5)" style="fill: url(#h95ad44415e); stroke: #222222; stroke-linejoin: miter"/>
   </g>
   <g id="patch_4">
    <path d="M 126.903848 157.276041 
L 155.929201 157.276041 
L 155.929201 46.591561 
L 126.903848 46.591561 
z
" clip-path="url(#pb9566177a5)" style="fill: url(#h95ad44415e); stroke: #222222; stroke-linejoin: miter"/>
   </g>
   <g id="patch_5">
    <path d="M 212.272532 157.276041 
L 241.297885 157.276041 
L 241.297885 83.486388 
L 212.272532 83.486388 
z
" clip-path="url(#pb9566177a5)" style="fill: url(#h95ad44415e); stroke: #222222; stroke-linejoin: miter"/>
   </g>
   <g id="patch_6">
    <path d="M 297.641217 157.276041 
L 326.666569 157.276041 
L 326.666569 120.381215 
L 297.641217 120.381215 
z
" clip-path="url(#pb9566177a5)" style="fill: url(#h95ad44415e); stroke: #222222; stroke-linejoin: miter"/>
   </g>
   <g id="patch_7">
    <path d="M 70.560517 157.276041 
L 99.585869 157.276041 
L 99.585869 83.486388 
L 70.560517 83.486388 
z
" clip-path="url(#pb9566177a5)" style="fill: url(#h0fb4273009); stroke: #222222; stroke-linejoin: miter"/>
   </g>
   <g id="patch_8">
    <path d="M 155.929201 157.276041 
L 184.954553 157.276041 
L 184.954553 46.591561 
L 155.929201 46.591561 
z
" clip-path="url(#pb9566177a5)" style="fill: url(#h0fb4273009); stroke: #222222; stroke-linejoin: miter"/>
   </g>
   <g id="patch_9">
    <path d="M 241.297885 157.276041 
L 270.323238 157.276041 
L 270.323238 120.381215 
L 241.297885 120.381215 
z
" clip-path="url(#pb9566177a5)" style="fill: url(#h0fb4273009); stroke: #222222; stroke-linejoin: miter"/>
   </g>
   <g id="patch_10">
    <path d="M 326.666569 157.276041 
L 355.691922 157.276041 
L 355.691922 120.381215 
L 326.666569 120.381215 
z
" clip-path="url(#pb9566177a5)" style="fill: url(#h0fb4273009); stroke: #222222; stroke-linejoin: miter"/>
   </g>
   <g id="matplotlib.axis_1">
    <g id="xtick_1">
     <g id="line2d_1">
      <defs>
       <path id="m278740c0db" d="M 0 0 
L 0 3.5 
" style="stroke: #000000; stroke-width: 0.8"/>
      </defs>
      <g>
       <use xlink:href="#m278740c0db" x="70.560517" y="157.276041" style="stroke: #000000; stroke-width: 0.8"/>
      </g>
     </g>
     <g id="text_1">
      <text style="font-size: 6.8px; font-family: 'DejaVu Sans'" transform="translate(64.914392 170.123112)">Fez</text>
      <text style="font-size: 6.8px; font-family: 'DejaVu Sans'" transform="translate(59.758079 178.28444)">-&gt; Fez</text>
     </g>
    </g>
    <g id="xtick_2">
     <g id="line2d_2">
      <g>
       <use xlink:href="#m278740c0db" x="155.929201" y="157.276041" style="stroke: #000000; stroke-width: 0.8"/>
      </g>
     </g>
     <g id="text_2">
      <text style="font-size: 6.8px; font-family: 'DejaVu Sans'" transform="translate(138.607795 170.123643)">Pittsburgh</text>
      <text style="font-size: 6.8px; font-family: 'DejaVu Sans'" transform="translate(133.451482 178.285502)">-&gt; Pittsburgh</text>
     </g>
    </g>
    <g id="xtick_3">
     <g id="line2d_3">
      <g>
       <use xlink:href="#m278740c0db" x="241.297885" y="157.276041" style="stroke: #000000; stroke-width: 0.8"/>
      </g>
     </g>
     <g id="text_3">
      <text style="font-size: 6.8px; font-family: 'DejaVu Sans'" transform="translate(235.65176 170.123112)">Fez</text>
      <text style="font-size: 6.8px; font-family: 'DejaVu Sans'" transform="translate(218.820166 178.284971)">-&gt; Pittsburgh</text>
     </g>
    </g>
    <g id="xtick_4">
     <g id="line2d_4">
      <g>
       <use xlink:href="#m278740c0db" x="326.666569" y="157.276041" style="stroke: #000000; stroke-width: 0.8"/>
      </g>
     </g>
     <g id="text_4">
      <text style="font-size: 6.8px; font-family: 'DejaVu Sans'" transform="translate(309.345163 170.123643)">Pittsburgh</text>
      <text style="font-size: 6.8px; font-family: 'DejaVu Sans'" transform="translate(315.864132 178.284971)">-&gt; Fez</text>
     </g>
    </g>
   </g>
   <g id="matplotlib.axis_2">
    <g id="ytick_1">
     <g id="line2d_5">
      <path d="M 25.827326 157.276041 
L 371.39976 157.276041 
" clip-path="url(#pb9566177a5)" style="fill: none; stroke: #b0b0b0; stroke-opacity: 0.3; stroke-width: 0.45; stroke-linecap: square"/>
     </g>
     <g id="line2d_6">
      <defs>
       <path id="m76c9e04c03" d="M 0 0 
L -3.5 0 
" style="stroke: #000000; stroke-width: 0.8"/>
      </defs>
      <g>
       <use xlink:href="#m76c9e04c03" x="25.827326" y="157.276041" style="stroke: #000000; stroke-width: 0.8"/>
      </g>
     </g>
     <g id="text_5">
      <text style="font-size: 6.8px; font-family: 'DejaVu Sans'; text-anchor: end" x="18.827326" y="159.859244" transform="rotate(-0 18.827326 159.859244)">0</text>
     </g>
    </g>
    <g id="ytick_2">
     <g id="line2d_7">
      <path d="M 25.827326 120.381215 
L 371.39976 120.381215 
" clip-path="url(#pb9566177a5)" style="fill: none; stroke: #b0b0b0; stroke-opacity: 0.3; stroke-width: 0.45; stroke-linecap: square"/>
     </g>
     <g id="line2d_8">
      <g>
       <use xlink:href="#m76c9e04c03" x="25.827326" y="120.381215" style="stroke: #000000; stroke-width: 0.8"/>
      </g>
     </g>
     <g id="text_6">
      <text style="font-size: 6.8px; font-family: 'DejaVu Sans'; text-anchor: end" x="18.827326" y="122.964418" transform="rotate(-0 18.827326 122.964418)">1</text>
     </g>
    </g>
    <g id="ytick_3">
     <g id="line2d_9">
      <path d="M 25.827326 83.486388 
L 371.39976 83.486388 
" clip-path="url(#pb9566177a5)" style="fill: none; stroke: #b0b0b0; stroke-opacity: 0.3; stroke-width: 0.45; stroke-linecap: square"/>
     </g>
     <g id="line2d_10">
      <g>
       <use xlink:href="#m76c9e04c03" x="25.827326" y="83.486388" style="stroke: #000000; stroke-width: 0.8"/>
      </g>
     </g>
     <g id="text_7">
      <text style="font-size: 6.8px; font-family: 'DejaVu Sans'; text-anchor: end" x="18.827326" y="86.069591" transform="rotate(-0 18.827326 86.069591)">2</text>
     </g>
    </g>
    <g id="ytick_4">
     <g id="line2d_11">
      <path d="M 25.827326 46.591561 
L 371.39976 46.591561 
" clip-path="url(#pb9566177a5)" style="fill: none; stroke: #b0b0b0; stroke-opacity: 0.3; stroke-width: 0.45; stroke-linecap: square"/>
     </g>
     <g id="line2d_12">
      <g>
       <use xlink:href="#m76c9e04c03" x="25.827326" y="46.591561" style="stroke: #000000; stroke-width: 0.8"/>
      </g>
     </g>
     <g id="text_8">
      <text style="font-size: 6.8px; font-family: 'DejaVu Sans'; text-anchor: end" x="18.827326" y="49.174765" transform="rotate(-0 18.827326 49.174765)">3</text>
     </g>
    </g>
    <g id="text_9">
     <text style="font-size: 7.5px; font-family: 'DejaVu Sans'; text-anchor: middle" x="8.699068" y="86.2535" transform="rotate(-90 8.699068 86.2535)">Observed trajectories</text>
    </g>
   </g>
   <g id="line2d_13">
    <path d="M 198.613543 157.276041 
L 198.613543 15.230959 
" clip-path="url(#pb9566177a5)" style="fill: none; stroke-dasharray: 2.96,1.28; stroke-dashoffset: 0; stroke: #777777; stroke-width: 0.8"/>
   </g>
   <g id="patch_11">
    <path d="M 25.827326 157.276041 
L 25.827326 15.230959 
" style="fill: none; stroke: #000000; stroke-width: 0.6; stroke-linejoin: miter; stroke-linecap: square"/>
   </g>
   <g id="patch_12">
    <path d="M 25.827326 157.276041 
L 371.39976 157.276041 
" style="fill: none; stroke: #000000; stroke-width: 0.6; stroke-linejoin: miter; stroke-linecap: square"/>
   </g>
   <g id="text_10">
    <text style="font-size: 6.5px; font-family: 'DejaVu Sans'; text-anchor: middle" x="56.04784" y="44.377872" transform="rotate(-0 56.04784 44.377872)">3/3</text>
   </g>
   <g id="text_11">
    <text style="font-size: 6.5px; font-family: 'DejaVu Sans'; text-anchor: middle" x="85.073193" y="81.272698" transform="rotate(-0 85.073193 81.272698)">2/3</text>
   </g>
   <g id="text_12">
    <text style="font-size: 6.5px; font-family: 'DejaVu Sans'; text-anchor: middle" x="141.416524" y="44.377872" transform="rotate(-0 141.416524 44.377872)">3/3</text>
   </g>
   <g id="text_13">
    <text style="font-size: 6.5px; font-family: 'DejaVu Sans'; text-anchor: middle" x="170.441877" y="44.377872" transform="rotate(-0 170.441877 44.377872)">3/3</text>
   </g>
   <g id="text_14">
    <text style="font-size: 6.5px; font-family: 'DejaVu Sans'; text-anchor: middle" x="226.785209" y="81.272698" transform="rotate(-0 226.785209 81.272698)">2/3</text>
   </g>
   <g id="text_15">
    <text style="font-size: 6.5px; font-family: 'DejaVu Sans'; text-anchor: middle" x="255.810561" y="118.167525" transform="rotate(-0 255.810561 118.167525)">1/3</text>
   </g>
   <g id="text_16">
    <text style="font-size: 6.5px; font-family: 'DejaVu Sans'; text-anchor: middle" x="312.153893" y="118.167525" transform="rotate(-0 312.153893 118.167525)">1/3</text>
   </g>
   <g id="text_17">
    <text style="font-size: 6.5px; font-family: 'DejaVu Sans'; text-anchor: middle" x="341.179246" y="118.167525" transform="rotate(-0 341.179246 118.167525)">1/3</text>
   </g>
   <g id="text_18">
    <text style="font-weight: 700; font-size: 8.2px; font-family: 'DejaVu Sans'; text-anchor: start" x="25.827326" y="9.230959" transform="rotate(-0 25.827326 9.230959)">Continuation outcome depends on backend direction</text>
   </g>
   <g id="legend_1">
    <g id="patch_13">
     <path d="M 31.857326 26.351912 
L 45.257326 26.351912 
L 45.257326 21.661912 
L 31.857326 21.661912 
z
" style="fill: url(#h95ad44415e); stroke: #222222; stroke-linejoin: miter"/>
    </g>
    <g id="text_19">
     <text style="font-size: 6.7px; font-family: 'DejaVu Sans'; text-anchor: start" x="50.617326" y="26.351912" transform="rotate(-0 50.617326 26.351912)">Continuation success</text>
    </g>
    <g id="patch_14">
     <path d="M 31.857326 36.402435 
L 45.257326 36.402435 
L 45.257326 31.712435 
L 31.857326 31.712435 
z
" style="fill: url(#h0fb4273009); stroke: #222222; stroke-linejoin: miter"/>
    </g>
    <g id="text_20">
     <text style="font-size: 6.7px; font-family: 'DejaVu Sans'; text-anchor: start" x="50.617326" y="36.402435" transform="rotate(-0 50.617326 36.402435)">Stable continuation</text>
    </g>
   </g>
  </g>
 </g>
 <defs>
  <clipPath id="pb9566177a5">
   <rect x="25.827326" y="15.230959" width="345.572434" height="142.045083"/>
  </clipPath>
 </defs>
 <defs>
  <pattern id="h95ad44415e" patternUnits="userSpaceOnUse" x="0" y="0" width="72" height="72">
   <rect x="0" y="0" width="73" height="73" fill="#56b4e9"/>
   <path d="M -36 36 
L 36 -36 
M -32 40 
L 40 -32 
M -28 44 
L 44 -28 
M -24 48 
L 48 -24 
M -20 52 
L 52 -20 
M -16 56 
L 56 -16 
M -12 60 
L 60 -12 
M -8 64 
L 64 -8 
M -4 68 
L 68 -4 
M 0 72 
L 72 0 
M 4 76 
L 76 4 
M 8 80 
L 80 8 
M 12 84 
L 84 12 
M 16 88 
L 88 16 
M 20 92 
L 92 20 
M 24 96 
L 96 24 
M 28 100 
L 100 28 
M 32 104 
L 104 32 
M 36 108 
L 108 36 
" style="fill: #222222; stroke: #222222; stroke-width: 1.0; stroke-linecap: butt; stroke-linejoin: miter"/>
  </pattern>
  <pattern id="h0fb4273009" patternUnits="userSpaceOnUse" x="0" y="0" width="72" height="72">
   <rect x="0" y="0" width="73" height="73" fill="#009e73"/>
   <path d="M -36 36 
L 36 -36 
M -30 42 
L 42 -30 
M -24 48 
L 48 -24 
M -18 54 
L 54 -18 
M -12 60 
L 60 -12 
M -6 66 
L 66 -6 
M 0 72 
L 72 0 
M 6 78 
L 78 6 
M 12 84 
L 84 12 
M 18 90 
L 90 18 
M 24 96 
L 96 24 
M 30 102 
L 102 30 
M 36 108 
L 108 36 
M -36 36 
L 36 108 
M -30 30 
L 42 102 
M -24 24 
L 48 96 
M -18 18 
L 54 90 
M -12 12 
L 60 84 
M -6 6 
L 66 78 
M 0 0 
L 72 72 
M 6 -6 
L 78 66 
M 12 -12 
L 84 60 
M 18 -18 
L 90 54 
M 24 -24 
L 96 48 
M 30 -30 
L 102 42 
M 36 -36 
L 108 36 
" style="fill: #222222; stroke: #222222; stroke-width: 1.0; stroke-linecap: butt; stroke-linejoin: miter"/>
  </pattern>
 </defs>
</svg>
